<mxfile host="app.diagrams.net" agent="Mozilla/5.0 (Windows NT 10.0; Win64; x64) AppleWebKit/537.36 (KHTML, like Gecko) Chrome/131.0.0.0 Safari/537.36" version="25.0.3">
  <diagram name="Page-1" id="S2DmgpCMU4Y5HUeyN_Yg">
    <mxGraphModel dx="11400" dy="3833" grid="0" gridSize="10" guides="1" tooltips="1" connect="1" arrows="1" fold="1" page="0" pageScale="1" pageWidth="850" pageHeight="1100" math="0" shadow="0">
      <root>
        <mxCell id="0" />
        <mxCell id="1" parent="0" />
        <mxCell id="AArtsiXoPUDR-AfbbcL--35" style="edgeStyle=orthogonalEdgeStyle;rounded=0;orthogonalLoop=1;jettySize=auto;html=1;entryX=0.5;entryY=0;entryDx=0;entryDy=0;" parent="1" source="AArtsiXoPUDR-AfbbcL--1" target="AArtsiXoPUDR-AfbbcL--3" edge="1">
          <mxGeometry relative="1" as="geometry" />
        </mxCell>
        <mxCell id="AArtsiXoPUDR-AfbbcL--1" value="Mulai" style="ellipse;whiteSpace=wrap;html=1;" parent="1" vertex="1">
          <mxGeometry x="377" y="30" width="97" height="66" as="geometry" />
        </mxCell>
        <mxCell id="2ASU68TMHlR7fyz_YcoL-4" style="edgeStyle=orthogonalEdgeStyle;rounded=0;orthogonalLoop=1;jettySize=auto;html=1;entryX=0;entryY=0.5;entryDx=0;entryDy=0;startArrow=classic;startFill=1;endArrow=none;endFill=0;" edge="1" parent="1" source="AArtsiXoPUDR-AfbbcL--3" target="AArtsiXoPUDR-AfbbcL--67">
          <mxGeometry relative="1" as="geometry">
            <Array as="points">
              <mxPoint x="-4250" y="260" />
              <mxPoint x="-4250" y="2960" />
            </Array>
          </mxGeometry>
        </mxCell>
        <mxCell id="2ASU68TMHlR7fyz_YcoL-171" value="&lt;font style=&quot;font-size: 19px;&quot;&gt;True&lt;/font&gt;" style="edgeLabel;html=1;align=center;verticalAlign=middle;resizable=0;points=[];" vertex="1" connectable="0" parent="2ASU68TMHlR7fyz_YcoL-4">
          <mxGeometry x="0.9921" y="-1" relative="1" as="geometry">
            <mxPoint x="-67" y="-1" as="offset" />
          </mxGeometry>
        </mxCell>
        <mxCell id="2ASU68TMHlR7fyz_YcoL-106" style="edgeStyle=orthogonalEdgeStyle;rounded=0;orthogonalLoop=1;jettySize=auto;html=1;entryX=0.5;entryY=0;entryDx=0;entryDy=0;" edge="1" parent="1" source="AArtsiXoPUDR-AfbbcL--3" target="AArtsiXoPUDR-AfbbcL--5">
          <mxGeometry relative="1" as="geometry" />
        </mxCell>
        <mxCell id="AArtsiXoPUDR-AfbbcL--3" value="&lt;div&gt;====================================&lt;/div&gt;&lt;div&gt;Aplikasi Kasir Suka Maju Bersama&lt;/div&gt;&lt;div&gt;&amp;nbsp; &amp;nbsp; &amp;nbsp; ====================================&lt;/div&gt;&lt;div&gt;1. Tambah Barang Baru&lt;/div&gt;&lt;div&gt;2. Tampilkan Semua Barang&lt;/div&gt;&lt;div&gt;&amp;nbsp; &amp;nbsp;3. Proses Transaksi&lt;/div&gt;&lt;div&gt;&amp;nbsp; &amp;nbsp;4. Tampilkan Metode&lt;/div&gt;&lt;div&gt;Pembayaran&lt;/div&gt;&lt;div&gt;5. Buat Laporan Penjualan&lt;/div&gt;&lt;div&gt;6. Simpan Transaksi ke File&lt;/div&gt;&lt;div&gt;7. Keluar&lt;br&gt;&lt;br&gt;&lt;br&gt;&lt;div&gt;====================================&lt;/div&gt;&lt;div&gt;Masukkan pilihan Anda :&amp;nbsp;&lt;/div&gt;&lt;div&gt;pilihan&lt;/div&gt;&lt;div&gt;====================================&lt;/div&gt;&lt;/div&gt;" style="shape=parallelogram;perimeter=parallelogramPerimeter;whiteSpace=wrap;html=1;fixedSize=1;" parent="1" vertex="1">
          <mxGeometry x="205.5" y="160" width="440" height="260" as="geometry" />
        </mxCell>
        <mxCell id="AArtsiXoPUDR-AfbbcL--30" style="edgeStyle=orthogonalEdgeStyle;rounded=0;orthogonalLoop=1;jettySize=auto;html=1;entryX=0.5;entryY=0;entryDx=0;entryDy=0;" parent="1" source="AArtsiXoPUDR-AfbbcL--5" target="AArtsiXoPUDR-AfbbcL--6" edge="1">
          <mxGeometry relative="1" as="geometry" />
        </mxCell>
        <mxCell id="AArtsiXoPUDR-AfbbcL--5" value="&lt;b style=&quot;color: rgb(139, 82, 255);&quot;&gt;Proses&lt;br&gt;&lt;/b&gt;Menerima&lt;br&gt;Inputan Dari User" style="rounded=0;whiteSpace=wrap;html=1;" parent="1" vertex="1">
          <mxGeometry x="325.5" y="680" width="200" height="80" as="geometry" />
        </mxCell>
        <mxCell id="AArtsiXoPUDR-AfbbcL--10" style="edgeStyle=orthogonalEdgeStyle;rounded=0;orthogonalLoop=1;jettySize=auto;html=1;entryX=0.5;entryY=0;entryDx=0;entryDy=0;" parent="1" source="AArtsiXoPUDR-AfbbcL--6" target="AArtsiXoPUDR-AfbbcL--9" edge="1">
          <mxGeometry relative="1" as="geometry" />
        </mxCell>
        <mxCell id="2ASU68TMHlR7fyz_YcoL-22" value="&lt;font style=&quot;font-size: 19px;&quot;&gt;True&lt;/font&gt;" style="edgeLabel;html=1;align=center;verticalAlign=middle;resizable=0;points=[];" vertex="1" connectable="0" parent="AArtsiXoPUDR-AfbbcL--10">
          <mxGeometry x="-0.6826" y="-2" relative="1" as="geometry">
            <mxPoint x="2" y="59" as="offset" />
          </mxGeometry>
        </mxCell>
        <mxCell id="2ASU68TMHlR7fyz_YcoL-20" style="edgeStyle=orthogonalEdgeStyle;rounded=0;orthogonalLoop=1;jettySize=auto;html=1;entryX=0;entryY=0.5;entryDx=0;entryDy=0;" edge="1" parent="1" source="AArtsiXoPUDR-AfbbcL--6" target="AArtsiXoPUDR-AfbbcL--73">
          <mxGeometry relative="1" as="geometry" />
        </mxCell>
        <mxCell id="2ASU68TMHlR7fyz_YcoL-21" value="&lt;font style=&quot;font-size: 19px;&quot;&gt;False&lt;/font&gt;" style="edgeLabel;html=1;align=center;verticalAlign=middle;resizable=0;points=[];" vertex="1" connectable="0" parent="2ASU68TMHlR7fyz_YcoL-20">
          <mxGeometry x="0.0118" y="3" relative="1" as="geometry">
            <mxPoint as="offset" />
          </mxGeometry>
        </mxCell>
        <mxCell id="AArtsiXoPUDR-AfbbcL--6" value="Pilihan = 1" style="rhombus;whiteSpace=wrap;html=1;" parent="1" vertex="1">
          <mxGeometry x="-3910.11" y="830" width="120" height="90" as="geometry" />
        </mxCell>
        <mxCell id="2ASU68TMHlR7fyz_YcoL-6" style="edgeStyle=orthogonalEdgeStyle;rounded=0;orthogonalLoop=1;jettySize=auto;html=1;entryX=0.5;entryY=0;entryDx=0;entryDy=0;" edge="1" parent="1" source="AArtsiXoPUDR-AfbbcL--9" target="2ASU68TMHlR7fyz_YcoL-5">
          <mxGeometry relative="1" as="geometry" />
        </mxCell>
        <mxCell id="AArtsiXoPUDR-AfbbcL--9" value="&lt;font color=&quot;#7f00ff&quot;&gt;&lt;b&gt;Memanggil&lt;/b&gt;&lt;/font&gt;&lt;br style=&quot;border-color: rgb(0, 0, 0);&quot;&gt;Fungsi&lt;br&gt;TambahBarang" style="rounded=0;whiteSpace=wrap;html=1;" parent="1" vertex="1">
          <mxGeometry x="-3929.91" y="1180" width="160" height="80" as="geometry" />
        </mxCell>
        <mxCell id="2ASU68TMHlR7fyz_YcoL-112" style="edgeStyle=orthogonalEdgeStyle;rounded=0;orthogonalLoop=1;jettySize=auto;html=1;entryX=0.5;entryY=0;entryDx=0;entryDy=0;" edge="1" parent="1" source="AArtsiXoPUDR-AfbbcL--43" target="AArtsiXoPUDR-AfbbcL--53">
          <mxGeometry relative="1" as="geometry" />
        </mxCell>
        <mxCell id="AArtsiXoPUDR-AfbbcL--43" value="Masukan Apakan Mau&lt;br&gt;Menambahkan barang :" style="shape=parallelogram;perimeter=parallelogramPerimeter;whiteSpace=wrap;html=1;fixedSize=1;" parent="1" vertex="1">
          <mxGeometry x="-3949.8999999999996" y="2220" width="200" height="80" as="geometry" />
        </mxCell>
        <mxCell id="2ASU68TMHlR7fyz_YcoL-111" style="edgeStyle=orthogonalEdgeStyle;rounded=0;orthogonalLoop=1;jettySize=auto;html=1;entryX=0.5;entryY=0;entryDx=0;entryDy=0;" edge="1" parent="1" source="AArtsiXoPUDR-AfbbcL--53" target="AArtsiXoPUDR-AfbbcL--54">
          <mxGeometry relative="1" as="geometry" />
        </mxCell>
        <mxCell id="AArtsiXoPUDR-AfbbcL--53" value="&lt;b style=&quot;color: rgb(139, 82, 255);&quot;&gt;Proses&lt;br&gt;&lt;/b&gt;Menerima Inputan&lt;br&gt;Dari User" style="rounded=0;whiteSpace=wrap;html=1;" parent="1" vertex="1">
          <mxGeometry x="-3944.8999999999996" y="2360" width="190" height="80" as="geometry" />
        </mxCell>
        <mxCell id="2ASU68TMHlR7fyz_YcoL-17" style="edgeStyle=orthogonalEdgeStyle;rounded=0;orthogonalLoop=1;jettySize=auto;html=1;entryX=0.5;entryY=0;entryDx=0;entryDy=0;" edge="1" parent="1" source="AArtsiXoPUDR-AfbbcL--54" target="AArtsiXoPUDR-AfbbcL--67">
          <mxGeometry relative="1" as="geometry">
            <Array as="points">
              <mxPoint x="-3850" y="2870" />
              <mxPoint x="423" y="2870" />
            </Array>
          </mxGeometry>
        </mxCell>
        <mxCell id="2ASU68TMHlR7fyz_YcoL-18" value="False" style="edgeLabel;html=1;align=center;verticalAlign=middle;resizable=0;points=[];" vertex="1" connectable="0" parent="2ASU68TMHlR7fyz_YcoL-17">
          <mxGeometry x="-0.9909" relative="1" as="geometry">
            <mxPoint as="offset" />
          </mxGeometry>
        </mxCell>
        <mxCell id="2ASU68TMHlR7fyz_YcoL-35" style="edgeStyle=orthogonalEdgeStyle;rounded=0;orthogonalLoop=1;jettySize=auto;html=1;entryX=0;entryY=0;entryDx=0;entryDy=0;" edge="1" parent="1" source="AArtsiXoPUDR-AfbbcL--54" target="2ASU68TMHlR7fyz_YcoL-5">
          <mxGeometry relative="1" as="geometry">
            <Array as="points">
              <mxPoint x="-4120" y="2525" />
              <mxPoint x="-4120" y="1380" />
            </Array>
          </mxGeometry>
        </mxCell>
        <mxCell id="2ASU68TMHlR7fyz_YcoL-36" value="True" style="edgeLabel;html=1;align=center;verticalAlign=middle;resizable=0;points=[];" vertex="1" connectable="0" parent="2ASU68TMHlR7fyz_YcoL-35">
          <mxGeometry x="-0.8823" y="-2" relative="1" as="geometry">
            <mxPoint as="offset" />
          </mxGeometry>
        </mxCell>
        <mxCell id="AArtsiXoPUDR-AfbbcL--54" value="Pilihan Y/T" style="rhombus;whiteSpace=wrap;html=1;" parent="1" vertex="1">
          <mxGeometry x="-3909.9100000000003" y="2480" width="120" height="90" as="geometry" />
        </mxCell>
        <mxCell id="AArtsiXoPUDR-AfbbcL--66" value="Selesai" style="ellipse;whiteSpace=wrap;html=1;" parent="1" vertex="1">
          <mxGeometry x="365.5" y="3200" width="120" height="80" as="geometry" />
        </mxCell>
        <mxCell id="AArtsiXoPUDR-AfbbcL--67" value="Pilihan != 7" style="rhombus;whiteSpace=wrap;html=1;" parent="1" vertex="1">
          <mxGeometry x="363.5" y="2920" width="120" height="80" as="geometry" />
        </mxCell>
        <mxCell id="2ASU68TMHlR7fyz_YcoL-170" style="edgeStyle=orthogonalEdgeStyle;rounded=0;orthogonalLoop=1;jettySize=auto;html=1;entryX=0.5;entryY=0;entryDx=0;entryDy=0;" edge="1" parent="1" source="AArtsiXoPUDR-AfbbcL--68" target="AArtsiXoPUDR-AfbbcL--66">
          <mxGeometry relative="1" as="geometry" />
        </mxCell>
        <mxCell id="AArtsiXoPUDR-AfbbcL--68" value="Anda Keluar Dari Program" style="shape=parallelogram;perimeter=parallelogramPerimeter;whiteSpace=wrap;html=1;fixedSize=1;" parent="1" vertex="1">
          <mxGeometry x="325.5" y="3080" width="200" height="80" as="geometry" />
        </mxCell>
        <mxCell id="2ASU68TMHlR7fyz_YcoL-25" style="edgeStyle=orthogonalEdgeStyle;rounded=0;orthogonalLoop=1;jettySize=auto;html=1;entryX=0.5;entryY=0;entryDx=0;entryDy=0;" edge="1" parent="1" source="AArtsiXoPUDR-AfbbcL--73" target="2ASU68TMHlR7fyz_YcoL-23">
          <mxGeometry relative="1" as="geometry" />
        </mxCell>
        <mxCell id="2ASU68TMHlR7fyz_YcoL-26" value="&lt;font style=&quot;font-size: 19px;&quot;&gt;True&lt;/font&gt;" style="edgeLabel;html=1;align=center;verticalAlign=middle;resizable=0;points=[];" vertex="1" connectable="0" parent="2ASU68TMHlR7fyz_YcoL-25">
          <mxGeometry x="-0.1731" y="-1" relative="1" as="geometry">
            <mxPoint as="offset" />
          </mxGeometry>
        </mxCell>
        <mxCell id="2ASU68TMHlR7fyz_YcoL-133" style="edgeStyle=orthogonalEdgeStyle;rounded=0;orthogonalLoop=1;jettySize=auto;html=1;entryX=0;entryY=0.5;entryDx=0;entryDy=0;" edge="1" parent="1" source="AArtsiXoPUDR-AfbbcL--73" target="AArtsiXoPUDR-AfbbcL--74">
          <mxGeometry relative="1" as="geometry" />
        </mxCell>
        <mxCell id="2ASU68TMHlR7fyz_YcoL-163" value="&lt;font style=&quot;font-size: 19px;&quot;&gt;False&lt;/font&gt;" style="edgeLabel;html=1;align=center;verticalAlign=middle;resizable=0;points=[];" vertex="1" connectable="0" parent="2ASU68TMHlR7fyz_YcoL-133">
          <mxGeometry x="-0.0767" y="-1" relative="1" as="geometry">
            <mxPoint as="offset" />
          </mxGeometry>
        </mxCell>
        <mxCell id="AArtsiXoPUDR-AfbbcL--73" value="Pilihan = 2" style="rhombus;whiteSpace=wrap;html=1;" parent="1" vertex="1">
          <mxGeometry x="-3020" y="830" width="120" height="90" as="geometry" />
        </mxCell>
        <mxCell id="2ASU68TMHlR7fyz_YcoL-135" style="edgeStyle=orthogonalEdgeStyle;rounded=0;orthogonalLoop=1;jettySize=auto;html=1;entryX=0.5;entryY=0;entryDx=0;entryDy=0;" edge="1" parent="1" source="AArtsiXoPUDR-AfbbcL--74" target="2ASU68TMHlR7fyz_YcoL-134">
          <mxGeometry relative="1" as="geometry" />
        </mxCell>
        <mxCell id="2ASU68TMHlR7fyz_YcoL-164" value="&lt;font style=&quot;font-size: 19px;&quot;&gt;True&lt;/font&gt;" style="edgeLabel;html=1;align=center;verticalAlign=middle;resizable=0;points=[];" vertex="1" connectable="0" parent="2ASU68TMHlR7fyz_YcoL-135">
          <mxGeometry x="-0.1836" y="-2" relative="1" as="geometry">
            <mxPoint as="offset" />
          </mxGeometry>
        </mxCell>
        <mxCell id="2ASU68TMHlR7fyz_YcoL-166" style="edgeStyle=orthogonalEdgeStyle;rounded=0;orthogonalLoop=1;jettySize=auto;html=1;entryX=0;entryY=0.5;entryDx=0;entryDy=0;" edge="1" parent="1" source="AArtsiXoPUDR-AfbbcL--74" target="2ASU68TMHlR7fyz_YcoL-165">
          <mxGeometry relative="1" as="geometry" />
        </mxCell>
        <mxCell id="2ASU68TMHlR7fyz_YcoL-167" value="&lt;font style=&quot;font-size: 19px;&quot;&gt;False&lt;/font&gt;" style="edgeLabel;html=1;align=center;verticalAlign=middle;resizable=0;points=[];" vertex="1" connectable="0" parent="2ASU68TMHlR7fyz_YcoL-166">
          <mxGeometry x="-0.1108" y="1" relative="1" as="geometry">
            <mxPoint as="offset" />
          </mxGeometry>
        </mxCell>
        <mxCell id="AArtsiXoPUDR-AfbbcL--74" value="Pilihan = 3" style="rhombus;whiteSpace=wrap;html=1;" parent="1" vertex="1">
          <mxGeometry x="-2140" y="830" width="120" height="90" as="geometry" />
        </mxCell>
        <mxCell id="2ASU68TMHlR7fyz_YcoL-8" style="edgeStyle=orthogonalEdgeStyle;rounded=0;orthogonalLoop=1;jettySize=auto;html=1;entryX=0.5;entryY=0;entryDx=0;entryDy=0;" edge="1" parent="1" source="2ASU68TMHlR7fyz_YcoL-5" target="2ASU68TMHlR7fyz_YcoL-7">
          <mxGeometry relative="1" as="geometry" />
        </mxCell>
        <mxCell id="2ASU68TMHlR7fyz_YcoL-9" value="True" style="edgeLabel;html=1;align=center;verticalAlign=middle;resizable=0;points=[];" vertex="1" connectable="0" parent="2ASU68TMHlR7fyz_YcoL-8">
          <mxGeometry x="-0.2078" relative="1" as="geometry">
            <mxPoint as="offset" />
          </mxGeometry>
        </mxCell>
        <mxCell id="2ASU68TMHlR7fyz_YcoL-113" style="edgeStyle=orthogonalEdgeStyle;rounded=0;orthogonalLoop=1;jettySize=auto;html=1;entryX=0;entryY=0.5;entryDx=0;entryDy=0;" edge="1" parent="1" source="2ASU68TMHlR7fyz_YcoL-5" target="2ASU68TMHlR7fyz_YcoL-107">
          <mxGeometry relative="1" as="geometry">
            <Array as="points">
              <mxPoint x="-4040" y="1410" />
              <mxPoint x="-4040" y="1770" />
            </Array>
          </mxGeometry>
        </mxCell>
        <mxCell id="2ASU68TMHlR7fyz_YcoL-114" value="False" style="edgeLabel;html=1;align=center;verticalAlign=middle;resizable=0;points=[];" vertex="1" connectable="0" parent="2ASU68TMHlR7fyz_YcoL-113">
          <mxGeometry x="-0.2504" relative="1" as="geometry">
            <mxPoint as="offset" />
          </mxGeometry>
        </mxCell>
        <mxCell id="2ASU68TMHlR7fyz_YcoL-5" value="Jumlah Barang&lt;br&gt;&amp;gt;=&lt;br&gt;Max" style="rhombus;whiteSpace=wrap;html=1;" vertex="1" parent="1">
          <mxGeometry x="-3920" y="1350" width="140" height="120" as="geometry" />
        </mxCell>
        <mxCell id="2ASU68TMHlR7fyz_YcoL-115" style="edgeStyle=orthogonalEdgeStyle;rounded=0;orthogonalLoop=1;jettySize=auto;html=1;endArrow=none;endFill=0;" edge="1" parent="1" source="2ASU68TMHlR7fyz_YcoL-7">
          <mxGeometry relative="1" as="geometry">
            <mxPoint x="-3580" y="2869.9999999999995" as="targetPoint" />
          </mxGeometry>
        </mxCell>
        <mxCell id="2ASU68TMHlR7fyz_YcoL-7" value="&lt;b style=&quot;color: rgb(51, 153, 255);&quot;&gt;Notifikasi&lt;/b&gt;&lt;br&gt;Data Penuh!&lt;br&gt;Tidak Dapat Menambah&lt;br&gt;Barang Baru" style="shape=parallelogram;perimeter=parallelogramPerimeter;whiteSpace=wrap;html=1;fixedSize=1;" vertex="1" parent="1">
          <mxGeometry x="-3949.91" y="1530" width="200" height="90" as="geometry" />
        </mxCell>
        <mxCell id="2ASU68TMHlR7fyz_YcoL-49" style="edgeStyle=orthogonalEdgeStyle;rounded=0;orthogonalLoop=1;jettySize=auto;html=1;entryX=0.5;entryY=0;entryDx=0;entryDy=0;" edge="1" parent="1" source="2ASU68TMHlR7fyz_YcoL-23" target="2ASU68TMHlR7fyz_YcoL-116">
          <mxGeometry relative="1" as="geometry">
            <mxPoint x="-2960" y="1300" as="targetPoint" />
          </mxGeometry>
        </mxCell>
        <mxCell id="2ASU68TMHlR7fyz_YcoL-23" value="&lt;font color=&quot;#7f00ff&quot;&gt;&lt;b&gt;Memanggil&lt;/b&gt;&lt;/font&gt;&lt;br style=&quot;border-color: rgb(0, 0, 0);&quot;&gt;Fungsi&lt;br style=&quot;border-color: rgb(0, 0, 0);&quot;&gt;Edit Barang" style="rounded=0;whiteSpace=wrap;html=1;" vertex="1" parent="1">
          <mxGeometry x="-3040" y="1180" width="160" height="80" as="geometry" />
        </mxCell>
        <mxCell id="2ASU68TMHlR7fyz_YcoL-129" style="edgeStyle=orthogonalEdgeStyle;rounded=0;orthogonalLoop=1;jettySize=auto;html=1;entryX=0;entryY=0.5;entryDx=0;entryDy=0;" edge="1" parent="1" source="2ASU68TMHlR7fyz_YcoL-43" target="2ASU68TMHlR7fyz_YcoL-68">
          <mxGeometry relative="1" as="geometry">
            <Array as="points">
              <mxPoint x="-3200" y="1665" />
              <mxPoint x="-3200" y="2595" />
            </Array>
          </mxGeometry>
        </mxCell>
        <mxCell id="2ASU68TMHlR7fyz_YcoL-206" value="False" style="edgeLabel;html=1;align=center;verticalAlign=middle;resizable=0;points=[];" vertex="1" connectable="0" parent="2ASU68TMHlR7fyz_YcoL-129">
          <mxGeometry x="-0.8563" relative="1" as="geometry">
            <mxPoint as="offset" />
          </mxGeometry>
        </mxCell>
        <mxCell id="2ASU68TMHlR7fyz_YcoL-43" value="&lt;font style=&quot;font-size: 11px;&quot;&gt;i&lt;br&gt;&amp;lt;&lt;br&gt;Jumlah Barang&lt;/font&gt;" style="rhombus;whiteSpace=wrap;html=1;" vertex="1" parent="1">
          <mxGeometry x="-3030" y="1605" width="140" height="120" as="geometry" />
        </mxCell>
        <mxCell id="2ASU68TMHlR7fyz_YcoL-123" style="edgeStyle=orthogonalEdgeStyle;rounded=0;orthogonalLoop=1;jettySize=auto;html=1;entryX=0.5;entryY=0;entryDx=0;entryDy=0;" edge="1" parent="1" source="2ASU68TMHlR7fyz_YcoL-53" target="2ASU68TMHlR7fyz_YcoL-118">
          <mxGeometry relative="1" as="geometry" />
        </mxCell>
        <mxCell id="2ASU68TMHlR7fyz_YcoL-128" value="True" style="edgeLabel;html=1;align=center;verticalAlign=middle;resizable=0;points=[];" vertex="1" connectable="0" parent="2ASU68TMHlR7fyz_YcoL-123">
          <mxGeometry x="-0.1874" relative="1" as="geometry">
            <mxPoint as="offset" />
          </mxGeometry>
        </mxCell>
        <mxCell id="2ASU68TMHlR7fyz_YcoL-198" style="edgeStyle=orthogonalEdgeStyle;rounded=0;orthogonalLoop=1;jettySize=auto;html=1;entryX=1;entryY=0.5;entryDx=0;entryDy=0;" edge="1" parent="1" source="2ASU68TMHlR7fyz_YcoL-53" target="2ASU68TMHlR7fyz_YcoL-43">
          <mxGeometry relative="1" as="geometry">
            <Array as="points">
              <mxPoint x="-2760" y="1860" />
              <mxPoint x="-2760" y="1665" />
            </Array>
          </mxGeometry>
        </mxCell>
        <mxCell id="2ASU68TMHlR7fyz_YcoL-199" value="False" style="edgeLabel;html=1;align=center;verticalAlign=middle;resizable=0;points=[];" vertex="1" connectable="0" parent="2ASU68TMHlR7fyz_YcoL-198">
          <mxGeometry x="-0.3345" y="-1" relative="1" as="geometry">
            <mxPoint as="offset" />
          </mxGeometry>
        </mxCell>
        <mxCell id="2ASU68TMHlR7fyz_YcoL-53" value="&lt;span style=&quot;font-size: 11px;&quot;&gt;investaris[i].id_barang&lt;br&gt;==&lt;/span&gt;&lt;div&gt;&lt;span style=&quot;font-size: 11px;&quot;&gt;id_barang&lt;/span&gt;&lt;/div&gt;" style="rhombus;whiteSpace=wrap;html=1;" vertex="1" parent="1">
          <mxGeometry x="-3055" y="1795" width="190" height="130" as="geometry" />
        </mxCell>
        <mxCell id="2ASU68TMHlR7fyz_YcoL-130" style="edgeStyle=orthogonalEdgeStyle;rounded=0;orthogonalLoop=1;jettySize=auto;html=1;endArrow=none;endFill=0;" edge="1" parent="1" source="2ASU68TMHlR7fyz_YcoL-68">
          <mxGeometry relative="1" as="geometry">
            <mxPoint x="-2964.99" y="2870" as="targetPoint" />
          </mxGeometry>
        </mxCell>
        <mxCell id="2ASU68TMHlR7fyz_YcoL-68" value="&lt;b style=&quot;color: rgb(51, 153, 255);&quot;&gt;Notifikasi&lt;/b&gt;&lt;br&gt;ID Barang Tidak&lt;br&gt;Di Temukan" style="shape=parallelogram;perimeter=parallelogramPerimeter;whiteSpace=wrap;html=1;fixedSize=1;" vertex="1" parent="1">
          <mxGeometry x="-3064.99" y="2555" width="200" height="80" as="geometry" />
        </mxCell>
        <mxCell id="2ASU68TMHlR7fyz_YcoL-97" style="edgeStyle=orthogonalEdgeStyle;rounded=0;orthogonalLoop=1;jettySize=auto;html=1;entryX=0.5;entryY=0;entryDx=0;entryDy=0;" edge="1" parent="1" source="2ASU68TMHlR7fyz_YcoL-95" target="AArtsiXoPUDR-AfbbcL--43">
          <mxGeometry relative="1" as="geometry" />
        </mxCell>
        <mxCell id="2ASU68TMHlR7fyz_YcoL-95" value="&lt;font color=&quot;#3399ff&quot;&gt;&lt;b style=&quot;&quot;&gt;Notifikasi&lt;/b&gt;&lt;br&gt;&lt;/font&gt;Barang Berhasil&lt;br&gt;Di Tambahkan" style="shape=parallelogram;perimeter=parallelogramPerimeter;whiteSpace=wrap;html=1;fixedSize=1;" vertex="1" parent="1">
          <mxGeometry x="-3949.8999999999996" y="2080" width="200" height="80" as="geometry" />
        </mxCell>
        <mxCell id="2ASU68TMHlR7fyz_YcoL-131" style="edgeStyle=orthogonalEdgeStyle;rounded=0;orthogonalLoop=1;jettySize=auto;html=1;endArrow=none;endFill=0;" edge="1" parent="1" source="2ASU68TMHlR7fyz_YcoL-101">
          <mxGeometry relative="1" as="geometry">
            <mxPoint x="-2830" y="2870" as="targetPoint" />
          </mxGeometry>
        </mxCell>
        <mxCell id="2ASU68TMHlR7fyz_YcoL-101" value="&lt;b style=&quot;color: rgb(51, 153, 255);&quot;&gt;Notifikasi&lt;/b&gt;&lt;br&gt;Barang Berhasil&lt;br&gt;Di Perbarui" style="shape=parallelogram;perimeter=parallelogramPerimeter;whiteSpace=wrap;html=1;fixedSize=1;" vertex="1" parent="1">
          <mxGeometry x="-3060" y="2415" width="200" height="80" as="geometry" />
        </mxCell>
        <mxCell id="2ASU68TMHlR7fyz_YcoL-109" style="edgeStyle=orthogonalEdgeStyle;rounded=0;orthogonalLoop=1;jettySize=auto;html=1;entryX=0.5;entryY=0;entryDx=0;entryDy=0;" edge="1" parent="1" source="2ASU68TMHlR7fyz_YcoL-107" target="2ASU68TMHlR7fyz_YcoL-108">
          <mxGeometry relative="1" as="geometry" />
        </mxCell>
        <mxCell id="2ASU68TMHlR7fyz_YcoL-107" value="==============&lt;br&gt;Tambah Barang&lt;br&gt;==============&lt;div&gt;&lt;br&gt;&lt;div&gt;Masukan ID Barang :&lt;br&gt;Masukan Nama Barang :&lt;br&gt;Masukan Harga Barang :&lt;br&gt;Masukan Stock Barang :&lt;/div&gt;&lt;/div&gt;" style="shape=parallelogram;perimeter=parallelogramPerimeter;whiteSpace=wrap;html=1;fixedSize=1;" vertex="1" parent="1">
          <mxGeometry x="-3994.8599999999997" y="1680" width="289.91" height="180" as="geometry" />
        </mxCell>
        <mxCell id="2ASU68TMHlR7fyz_YcoL-110" style="edgeStyle=orthogonalEdgeStyle;rounded=0;orthogonalLoop=1;jettySize=auto;html=1;entryX=0.5;entryY=0;entryDx=0;entryDy=0;" edge="1" parent="1" source="2ASU68TMHlR7fyz_YcoL-108" target="2ASU68TMHlR7fyz_YcoL-95">
          <mxGeometry relative="1" as="geometry" />
        </mxCell>
        <mxCell id="2ASU68TMHlR7fyz_YcoL-108" value="&lt;b style=&quot;color: rgb(139, 82, 255);&quot;&gt;Proses&lt;br&gt;&lt;/b&gt;Menerima Inputan&lt;br&gt;Dari User" style="rounded=0;whiteSpace=wrap;html=1;" vertex="1" parent="1">
          <mxGeometry x="-3944.91" y="1940" width="190" height="80" as="geometry" />
        </mxCell>
        <mxCell id="2ASU68TMHlR7fyz_YcoL-139" style="edgeStyle=orthogonalEdgeStyle;rounded=0;orthogonalLoop=1;jettySize=auto;html=1;entryX=0.5;entryY=0;entryDx=0;entryDy=0;" edge="1" parent="1" source="2ASU68TMHlR7fyz_YcoL-116" target="2ASU68TMHlR7fyz_YcoL-137">
          <mxGeometry relative="1" as="geometry" />
        </mxCell>
        <mxCell id="2ASU68TMHlR7fyz_YcoL-116" value="==============&lt;br&gt;Edit Barang&lt;br&gt;==============&lt;div&gt;&lt;br&gt;&lt;/div&gt;&lt;div&gt;Masukan ID Barang Yang&lt;br&gt;Ingin Diubah&amp;nbsp; :&lt;/div&gt;" style="shape=parallelogram;perimeter=parallelogramPerimeter;whiteSpace=wrap;html=1;fixedSize=1;" vertex="1" parent="1">
          <mxGeometry x="-3104.95" y="1320" width="289.91" height="110" as="geometry" />
        </mxCell>
        <mxCell id="2ASU68TMHlR7fyz_YcoL-125" style="edgeStyle=orthogonalEdgeStyle;rounded=0;orthogonalLoop=1;jettySize=auto;html=1;entryX=0.5;entryY=0;entryDx=0;entryDy=0;" edge="1" parent="1" source="2ASU68TMHlR7fyz_YcoL-118" target="2ASU68TMHlR7fyz_YcoL-124">
          <mxGeometry relative="1" as="geometry" />
        </mxCell>
        <mxCell id="2ASU68TMHlR7fyz_YcoL-118" value="========================&lt;br&gt;Barang Di Temukan&lt;br&gt;Nama Barang Yang Dicari :&amp;nbsp;&lt;br&gt;Harga Barang Yang Dicari :&lt;br&gt;Stok Barang Yang Dicari :&lt;div&gt;========================&lt;br&gt;&lt;br&gt;Masukan ID Barang Baru :&lt;br&gt;Masukan Nama Barang Baru :&lt;br&gt;Masukan Harga Barang Baru :&lt;br&gt;Masukan Stock Barang Baru :&lt;/div&gt;" style="shape=parallelogram;perimeter=parallelogramPerimeter;whiteSpace=wrap;html=1;fixedSize=1;" vertex="1" parent="1">
          <mxGeometry x="-3104.95" y="1995" width="289.91" height="190" as="geometry" />
        </mxCell>
        <mxCell id="2ASU68TMHlR7fyz_YcoL-122" style="edgeStyle=orthogonalEdgeStyle;rounded=0;orthogonalLoop=1;jettySize=auto;html=1;entryX=0.5;entryY=-0.01;entryDx=0;entryDy=0;entryPerimeter=0;" edge="1" parent="1" source="2ASU68TMHlR7fyz_YcoL-43" target="2ASU68TMHlR7fyz_YcoL-53">
          <mxGeometry relative="1" as="geometry" />
        </mxCell>
        <mxCell id="2ASU68TMHlR7fyz_YcoL-205" value="True" style="edgeLabel;html=1;align=center;verticalAlign=middle;resizable=0;points=[];" vertex="1" connectable="0" parent="2ASU68TMHlR7fyz_YcoL-122">
          <mxGeometry x="-0.2445" y="1" relative="1" as="geometry">
            <mxPoint as="offset" />
          </mxGeometry>
        </mxCell>
        <mxCell id="2ASU68TMHlR7fyz_YcoL-126" style="edgeStyle=orthogonalEdgeStyle;rounded=0;orthogonalLoop=1;jettySize=auto;html=1;entryX=0.5;entryY=0;entryDx=0;entryDy=0;" edge="1" parent="1" source="2ASU68TMHlR7fyz_YcoL-124" target="2ASU68TMHlR7fyz_YcoL-101">
          <mxGeometry relative="1" as="geometry" />
        </mxCell>
        <mxCell id="2ASU68TMHlR7fyz_YcoL-124" value="&lt;b style=&quot;color: rgb(139, 82, 255);&quot;&gt;Proses&lt;/b&gt;&lt;div&gt;Menerima Inputan&lt;br&gt;Dari User&lt;/div&gt;" style="rounded=0;whiteSpace=wrap;html=1;" vertex="1" parent="1">
          <mxGeometry x="-3054.99" y="2275" width="190" height="80" as="geometry" />
        </mxCell>
        <mxCell id="2ASU68TMHlR7fyz_YcoL-142" style="edgeStyle=orthogonalEdgeStyle;rounded=0;orthogonalLoop=1;jettySize=auto;html=1;entryX=0.5;entryY=0;entryDx=0;entryDy=0;" edge="1" parent="1" source="2ASU68TMHlR7fyz_YcoL-134" target="2ASU68TMHlR7fyz_YcoL-136">
          <mxGeometry relative="1" as="geometry" />
        </mxCell>
        <mxCell id="2ASU68TMHlR7fyz_YcoL-134" value="&lt;font color=&quot;#7f00ff&quot;&gt;&lt;b&gt;Memanggil&lt;/b&gt;&lt;/font&gt;&lt;br style=&quot;border-color: rgb(0, 0, 0);&quot;&gt;Fungsi&lt;br style=&quot;border-color: rgb(0, 0, 0);&quot;&gt;Hapus Barang" style="rounded=0;whiteSpace=wrap;html=1;" vertex="1" parent="1">
          <mxGeometry x="-2160" y="1180" width="160" height="80" as="geometry" />
        </mxCell>
        <mxCell id="2ASU68TMHlR7fyz_YcoL-143" style="edgeStyle=orthogonalEdgeStyle;rounded=0;orthogonalLoop=1;jettySize=auto;html=1;entryX=0.5;entryY=0;entryDx=0;entryDy=0;" edge="1" parent="1" source="2ASU68TMHlR7fyz_YcoL-136" target="2ASU68TMHlR7fyz_YcoL-141">
          <mxGeometry relative="1" as="geometry" />
        </mxCell>
        <mxCell id="2ASU68TMHlR7fyz_YcoL-136" value="==============&lt;br&gt;Hapus Barang&lt;br&gt;==============&lt;div&gt;&lt;br&gt;&lt;/div&gt;&lt;div&gt;Masukan ID Barang Yang&lt;br&gt;Ingin Diubah&amp;nbsp; :&lt;/div&gt;" style="shape=parallelogram;perimeter=parallelogramPerimeter;whiteSpace=wrap;html=1;fixedSize=1;" vertex="1" parent="1">
          <mxGeometry x="-2224.95" y="1320" width="289.91" height="110" as="geometry" />
        </mxCell>
        <mxCell id="2ASU68TMHlR7fyz_YcoL-138" style="edgeStyle=orthogonalEdgeStyle;rounded=0;orthogonalLoop=1;jettySize=auto;html=1;" edge="1" parent="1" source="2ASU68TMHlR7fyz_YcoL-137" target="2ASU68TMHlR7fyz_YcoL-43">
          <mxGeometry relative="1" as="geometry" />
        </mxCell>
        <mxCell id="2ASU68TMHlR7fyz_YcoL-137" value="&lt;b style=&quot;color: rgb(139, 82, 255);&quot;&gt;Proses&lt;br&gt;&lt;/b&gt;Menerima Inputan&lt;br&gt;Dari User" style="rounded=0;whiteSpace=wrap;html=1;" vertex="1" parent="1">
          <mxGeometry x="-3054.99" y="1480" width="190" height="80" as="geometry" />
        </mxCell>
        <mxCell id="2ASU68TMHlR7fyz_YcoL-145" style="edgeStyle=orthogonalEdgeStyle;rounded=0;orthogonalLoop=1;jettySize=auto;html=1;entryX=0.5;entryY=0;entryDx=0;entryDy=0;" edge="1" parent="1" source="2ASU68TMHlR7fyz_YcoL-141" target="2ASU68TMHlR7fyz_YcoL-144">
          <mxGeometry relative="1" as="geometry" />
        </mxCell>
        <mxCell id="2ASU68TMHlR7fyz_YcoL-141" value="&lt;b style=&quot;color: rgb(139, 82, 255);&quot;&gt;Proses&lt;br&gt;&lt;/b&gt;Menerima Inputan&lt;br&gt;Dari User" style="rounded=0;whiteSpace=wrap;html=1;" vertex="1" parent="1">
          <mxGeometry x="-2175" y="1470" width="190" height="80" as="geometry" />
        </mxCell>
        <mxCell id="2ASU68TMHlR7fyz_YcoL-147" style="edgeStyle=orthogonalEdgeStyle;rounded=0;orthogonalLoop=1;jettySize=auto;html=1;entryX=0.5;entryY=0;entryDx=0;entryDy=0;" edge="1" parent="1" source="2ASU68TMHlR7fyz_YcoL-144" target="2ASU68TMHlR7fyz_YcoL-146">
          <mxGeometry relative="1" as="geometry" />
        </mxCell>
        <mxCell id="2ASU68TMHlR7fyz_YcoL-208" value="True" style="edgeLabel;html=1;align=center;verticalAlign=middle;resizable=0;points=[];" vertex="1" connectable="0" parent="2ASU68TMHlR7fyz_YcoL-147">
          <mxGeometry x="-0.4086" relative="1" as="geometry">
            <mxPoint as="offset" />
          </mxGeometry>
        </mxCell>
        <mxCell id="2ASU68TMHlR7fyz_YcoL-160" style="edgeStyle=orthogonalEdgeStyle;rounded=0;orthogonalLoop=1;jettySize=auto;html=1;entryX=0;entryY=0.5;entryDx=0;entryDy=0;" edge="1" parent="1" source="2ASU68TMHlR7fyz_YcoL-144" target="2ASU68TMHlR7fyz_YcoL-148">
          <mxGeometry relative="1" as="geometry">
            <Array as="points">
              <mxPoint x="-2320" y="1650" />
              <mxPoint x="-2320" y="2640" />
            </Array>
          </mxGeometry>
        </mxCell>
        <mxCell id="2ASU68TMHlR7fyz_YcoL-207" value="False" style="edgeLabel;html=1;align=center;verticalAlign=middle;resizable=0;points=[];" vertex="1" connectable="0" parent="2ASU68TMHlR7fyz_YcoL-160">
          <mxGeometry x="-0.9216" y="1" relative="1" as="geometry">
            <mxPoint as="offset" />
          </mxGeometry>
        </mxCell>
        <mxCell id="2ASU68TMHlR7fyz_YcoL-144" value="&lt;font style=&quot;font-size: 11px;&quot;&gt;i&lt;br&gt;&amp;lt;&lt;br&gt;Jumlah Barang&lt;/font&gt;" style="rhombus;whiteSpace=wrap;html=1;" vertex="1" parent="1">
          <mxGeometry x="-2149.99" y="1590" width="140" height="120" as="geometry" />
        </mxCell>
        <mxCell id="2ASU68TMHlR7fyz_YcoL-153" style="edgeStyle=orthogonalEdgeStyle;rounded=0;orthogonalLoop=1;jettySize=auto;html=1;entryX=0.5;entryY=0;entryDx=0;entryDy=0;" edge="1" parent="1" source="2ASU68TMHlR7fyz_YcoL-146" target="2ASU68TMHlR7fyz_YcoL-152">
          <mxGeometry relative="1" as="geometry" />
        </mxCell>
        <mxCell id="2ASU68TMHlR7fyz_YcoL-201" value="True" style="edgeLabel;html=1;align=center;verticalAlign=middle;resizable=0;points=[];" vertex="1" connectable="0" parent="2ASU68TMHlR7fyz_YcoL-153">
          <mxGeometry x="-0.274" relative="1" as="geometry">
            <mxPoint y="5" as="offset" />
          </mxGeometry>
        </mxCell>
        <mxCell id="2ASU68TMHlR7fyz_YcoL-200" style="edgeStyle=orthogonalEdgeStyle;rounded=0;orthogonalLoop=1;jettySize=auto;html=1;entryX=1;entryY=0.5;entryDx=0;entryDy=0;" edge="1" parent="1" source="2ASU68TMHlR7fyz_YcoL-146" target="2ASU68TMHlR7fyz_YcoL-144">
          <mxGeometry relative="1" as="geometry">
            <Array as="points">
              <mxPoint x="-1920" y="1860" />
              <mxPoint x="-1920" y="1650" />
            </Array>
          </mxGeometry>
        </mxCell>
        <mxCell id="2ASU68TMHlR7fyz_YcoL-202" value="False" style="edgeLabel;html=1;align=center;verticalAlign=middle;resizable=0;points=[];" vertex="1" connectable="0" parent="2ASU68TMHlR7fyz_YcoL-200">
          <mxGeometry x="-0.3084" y="2" relative="1" as="geometry">
            <mxPoint as="offset" />
          </mxGeometry>
        </mxCell>
        <mxCell id="2ASU68TMHlR7fyz_YcoL-146" value="&lt;span style=&quot;font-size: 11px;&quot;&gt;investaris[i].id_barang&lt;br&gt;==&lt;/span&gt;&lt;div&gt;&lt;span style=&quot;font-size: 11px;&quot;&gt;id_barang&lt;/span&gt;&lt;/div&gt;" style="rhombus;whiteSpace=wrap;html=1;" vertex="1" parent="1">
          <mxGeometry x="-2175" y="1795" width="190" height="130" as="geometry" />
        </mxCell>
        <mxCell id="2ASU68TMHlR7fyz_YcoL-162" style="edgeStyle=orthogonalEdgeStyle;rounded=0;orthogonalLoop=1;jettySize=auto;html=1;endArrow=none;endFill=0;" edge="1" parent="1" source="2ASU68TMHlR7fyz_YcoL-148">
          <mxGeometry relative="1" as="geometry">
            <mxPoint x="-2085" y="2870" as="targetPoint" />
          </mxGeometry>
        </mxCell>
        <mxCell id="2ASU68TMHlR7fyz_YcoL-148" value="&lt;b style=&quot;color: rgb(51, 153, 255);&quot;&gt;Notifikasi&lt;/b&gt;&lt;br&gt;ID Barang Tidak&lt;br&gt;Di Temukan" style="shape=parallelogram;perimeter=parallelogramPerimeter;whiteSpace=wrap;html=1;fixedSize=1;" vertex="1" parent="1">
          <mxGeometry x="-2185" y="2600" width="200" height="80" as="geometry" />
        </mxCell>
        <mxCell id="2ASU68TMHlR7fyz_YcoL-156" style="edgeStyle=orthogonalEdgeStyle;rounded=0;orthogonalLoop=1;jettySize=auto;html=1;entryX=0.5;entryY=0;entryDx=0;entryDy=0;" edge="1" parent="1" source="2ASU68TMHlR7fyz_YcoL-150" target="2ASU68TMHlR7fyz_YcoL-155">
          <mxGeometry relative="1" as="geometry" />
        </mxCell>
        <mxCell id="2ASU68TMHlR7fyz_YcoL-150" value="&lt;font style=&quot;font-size: 11px;&quot;&gt;j&lt;br&gt;&amp;lt;&lt;br&gt;Jumlah Barang -1&lt;/font&gt;" style="rhombus;whiteSpace=wrap;html=1;" vertex="1" parent="1">
          <mxGeometry x="-2159.99" y="2100" width="160" height="120" as="geometry" />
        </mxCell>
        <mxCell id="2ASU68TMHlR7fyz_YcoL-154" style="edgeStyle=orthogonalEdgeStyle;rounded=0;orthogonalLoop=1;jettySize=auto;html=1;entryX=0.5;entryY=0;entryDx=0;entryDy=0;" edge="1" parent="1" source="2ASU68TMHlR7fyz_YcoL-152" target="2ASU68TMHlR7fyz_YcoL-150">
          <mxGeometry relative="1" as="geometry" />
        </mxCell>
        <mxCell id="2ASU68TMHlR7fyz_YcoL-152" value="Barang Dengan ID Yang Dicari&lt;br&gt;Ditemukan Dan Akan Dihapus" style="shape=parallelogram;perimeter=parallelogramPerimeter;whiteSpace=wrap;html=1;fixedSize=1;" vertex="1" parent="1">
          <mxGeometry x="-2224.95" y="1980" width="289.91" height="70" as="geometry" />
        </mxCell>
        <mxCell id="2ASU68TMHlR7fyz_YcoL-159" style="edgeStyle=orthogonalEdgeStyle;rounded=0;orthogonalLoop=1;jettySize=auto;html=1;entryX=0.5;entryY=0;entryDx=0;entryDy=0;" edge="1" parent="1" source="2ASU68TMHlR7fyz_YcoL-155" target="2ASU68TMHlR7fyz_YcoL-158">
          <mxGeometry relative="1" as="geometry" />
        </mxCell>
        <mxCell id="2ASU68TMHlR7fyz_YcoL-155" value="&lt;font color=&quot;#8b52ff&quot;&gt;&lt;b&gt;Proses &lt;/b&gt;&lt;/font&gt;&lt;br&gt;Pemulihan&amp;nbsp; Array&lt;div&gt;Atau&lt;br&gt;Proses Pengosongan Data&lt;/div&gt;" style="rounded=0;whiteSpace=wrap;html=1;" vertex="1" parent="1">
          <mxGeometry x="-2174.99" y="2260" width="190" height="80" as="geometry" />
        </mxCell>
        <mxCell id="2ASU68TMHlR7fyz_YcoL-161" style="edgeStyle=orthogonalEdgeStyle;rounded=0;orthogonalLoop=1;jettySize=auto;html=1;endArrow=none;endFill=0;" edge="1" parent="1" source="2ASU68TMHlR7fyz_YcoL-158">
          <mxGeometry relative="1" as="geometry">
            <mxPoint x="-1920" y="2870" as="targetPoint" />
          </mxGeometry>
        </mxCell>
        <mxCell id="2ASU68TMHlR7fyz_YcoL-158" value="&lt;b style=&quot;color: rgb(51, 153, 255);&quot;&gt;Notifikasi&lt;/b&gt;&lt;br&gt;Barang Berhasil&lt;br&gt;Dihapus" style="shape=parallelogram;perimeter=parallelogramPerimeter;whiteSpace=wrap;html=1;fixedSize=1;" vertex="1" parent="1">
          <mxGeometry x="-2180" y="2415" width="200" height="80" as="geometry" />
        </mxCell>
        <mxCell id="2ASU68TMHlR7fyz_YcoL-175" style="edgeStyle=orthogonalEdgeStyle;rounded=0;orthogonalLoop=1;jettySize=auto;html=1;entryX=0.5;entryY=0;entryDx=0;entryDy=0;" edge="1" parent="1" source="2ASU68TMHlR7fyz_YcoL-165" target="2ASU68TMHlR7fyz_YcoL-174">
          <mxGeometry relative="1" as="geometry" />
        </mxCell>
        <mxCell id="2ASU68TMHlR7fyz_YcoL-176" value="&lt;font style=&quot;font-size: 19px;&quot;&gt;True&lt;/font&gt;" style="edgeLabel;html=1;align=center;verticalAlign=middle;resizable=0;points=[];" vertex="1" connectable="0" parent="2ASU68TMHlR7fyz_YcoL-175">
          <mxGeometry x="-0.1532" y="-2" relative="1" as="geometry">
            <mxPoint as="offset" />
          </mxGeometry>
        </mxCell>
        <mxCell id="2ASU68TMHlR7fyz_YcoL-165" value="Pilihan = 3" style="rhombus;whiteSpace=wrap;html=1;" vertex="1" parent="1">
          <mxGeometry x="-1300" y="830" width="120" height="90" as="geometry" />
        </mxCell>
        <mxCell id="2ASU68TMHlR7fyz_YcoL-169" style="edgeStyle=orthogonalEdgeStyle;rounded=0;orthogonalLoop=1;jettySize=auto;html=1;entryX=0.494;entryY=-0.012;entryDx=0;entryDy=0;entryPerimeter=0;" edge="1" parent="1" source="AArtsiXoPUDR-AfbbcL--67" target="AArtsiXoPUDR-AfbbcL--68">
          <mxGeometry relative="1" as="geometry" />
        </mxCell>
        <mxCell id="2ASU68TMHlR7fyz_YcoL-172" value="&lt;font style=&quot;font-size: 19px;&quot;&gt;False&lt;/font&gt;" style="edgeLabel;html=1;align=center;verticalAlign=middle;resizable=0;points=[];" vertex="1" connectable="0" parent="2ASU68TMHlR7fyz_YcoL-169">
          <mxGeometry x="-0.0477" relative="1" as="geometry">
            <mxPoint y="-8" as="offset" />
          </mxGeometry>
        </mxCell>
        <mxCell id="2ASU68TMHlR7fyz_YcoL-178" style="edgeStyle=orthogonalEdgeStyle;rounded=0;orthogonalLoop=1;jettySize=auto;html=1;entryX=0.5;entryY=0;entryDx=0;entryDy=0;" edge="1" parent="1" source="2ASU68TMHlR7fyz_YcoL-174" target="2ASU68TMHlR7fyz_YcoL-177">
          <mxGeometry relative="1" as="geometry" />
        </mxCell>
        <mxCell id="2ASU68TMHlR7fyz_YcoL-174" value="&lt;font color=&quot;#7f00ff&quot;&gt;&lt;b&gt;Memanggil&lt;/b&gt;&lt;/font&gt;&lt;br style=&quot;border-color: rgb(0, 0, 0);&quot;&gt;Fungsi&lt;br style=&quot;border-color: rgb(0, 0, 0);&quot;&gt;Tampil Semua Barang" style="rounded=0;whiteSpace=wrap;html=1;" vertex="1" parent="1">
          <mxGeometry x="-1320" y="1180" width="160" height="80" as="geometry" />
        </mxCell>
        <mxCell id="2ASU68TMHlR7fyz_YcoL-180" style="edgeStyle=orthogonalEdgeStyle;rounded=0;orthogonalLoop=1;jettySize=auto;html=1;entryX=0.5;entryY=0;entryDx=0;entryDy=0;" edge="1" parent="1" source="2ASU68TMHlR7fyz_YcoL-177" target="2ASU68TMHlR7fyz_YcoL-179">
          <mxGeometry relative="1" as="geometry" />
        </mxCell>
        <mxCell id="2ASU68TMHlR7fyz_YcoL-181" value="True" style="edgeLabel;html=1;align=center;verticalAlign=middle;resizable=0;points=[];" vertex="1" connectable="0" parent="2ASU68TMHlR7fyz_YcoL-180">
          <mxGeometry x="-0.2194" y="-2" relative="1" as="geometry">
            <mxPoint as="offset" />
          </mxGeometry>
        </mxCell>
        <mxCell id="2ASU68TMHlR7fyz_YcoL-187" style="edgeStyle=orthogonalEdgeStyle;rounded=0;orthogonalLoop=1;jettySize=auto;html=1;entryX=0;entryY=0.5;entryDx=0;entryDy=0;" edge="1" parent="1" source="2ASU68TMHlR7fyz_YcoL-177" target="2ASU68TMHlR7fyz_YcoL-182">
          <mxGeometry relative="1" as="geometry">
            <Array as="points">
              <mxPoint x="-1600" y="1420" />
              <mxPoint x="-1600" y="1837" />
            </Array>
          </mxGeometry>
        </mxCell>
        <mxCell id="2ASU68TMHlR7fyz_YcoL-188" value="False" style="edgeLabel;html=1;align=center;verticalAlign=middle;resizable=0;points=[];" vertex="1" connectable="0" parent="2ASU68TMHlR7fyz_YcoL-187">
          <mxGeometry x="-0.0285" y="-1" relative="1" as="geometry">
            <mxPoint as="offset" />
          </mxGeometry>
        </mxCell>
        <mxCell id="2ASU68TMHlR7fyz_YcoL-177" value="&lt;span style=&quot;font-size: 11px;&quot;&gt;Jumlah Barang&lt;br&gt;==&lt;br&gt;0&lt;/span&gt;" style="rhombus;whiteSpace=wrap;html=1;" vertex="1" parent="1">
          <mxGeometry x="-1309.9999999999998" y="1360" width="140" height="120" as="geometry" />
        </mxCell>
        <mxCell id="2ASU68TMHlR7fyz_YcoL-179" value="====================&lt;br&gt;Tidak Ada Barang&lt;br&gt;====================" style="shape=parallelogram;perimeter=parallelogramPerimeter;whiteSpace=wrap;html=1;fixedSize=1;" vertex="1" parent="1">
          <mxGeometry x="-1384.9599999999998" y="1550" width="289.91" height="110" as="geometry" />
        </mxCell>
        <mxCell id="2ASU68TMHlR7fyz_YcoL-190" style="edgeStyle=orthogonalEdgeStyle;rounded=0;orthogonalLoop=1;jettySize=auto;html=1;entryX=0.5;entryY=0;entryDx=0;entryDy=0;" edge="1" parent="1" source="2ASU68TMHlR7fyz_YcoL-182" target="2ASU68TMHlR7fyz_YcoL-189">
          <mxGeometry relative="1" as="geometry" />
        </mxCell>
        <mxCell id="2ASU68TMHlR7fyz_YcoL-182" value="&lt;div&gt;==========================================================================&lt;/div&gt;&lt;div&gt;| ID Barang&amp;nbsp; &amp;nbsp; | Nama Barang&amp;nbsp; &amp;nbsp; &amp;nbsp; &amp;nbsp; | Harga Barang&amp;nbsp; &amp;nbsp; | Stok Barang&amp;nbsp; &amp;nbsp; |&lt;/div&gt;&lt;div&gt;==========================================================================&lt;/div&gt;" style="shape=parallelogram;perimeter=parallelogramPerimeter;whiteSpace=wrap;html=1;fixedSize=1;" vertex="1" parent="1">
          <mxGeometry x="-1522.49" y="1795" width="564.96" height="85" as="geometry" />
        </mxCell>
        <mxCell id="2ASU68TMHlR7fyz_YcoL-192" style="edgeStyle=orthogonalEdgeStyle;rounded=0;orthogonalLoop=1;jettySize=auto;html=1;entryX=0.5;entryY=0;entryDx=0;entryDy=0;" edge="1" parent="1" source="2ASU68TMHlR7fyz_YcoL-189" target="2ASU68TMHlR7fyz_YcoL-191">
          <mxGeometry relative="1" as="geometry" />
        </mxCell>
        <mxCell id="2ASU68TMHlR7fyz_YcoL-210" value="True" style="edgeLabel;html=1;align=center;verticalAlign=middle;resizable=0;points=[];" vertex="1" connectable="0" parent="2ASU68TMHlR7fyz_YcoL-192">
          <mxGeometry x="-0.1157" y="-1" relative="1" as="geometry">
            <mxPoint as="offset" />
          </mxGeometry>
        </mxCell>
        <mxCell id="2ASU68TMHlR7fyz_YcoL-197" style="edgeStyle=orthogonalEdgeStyle;rounded=0;orthogonalLoop=1;jettySize=auto;html=1;endArrow=none;endFill=0;" edge="1" parent="1" source="2ASU68TMHlR7fyz_YcoL-189">
          <mxGeometry relative="1" as="geometry">
            <mxPoint x="-1400" y="2870" as="targetPoint" />
          </mxGeometry>
        </mxCell>
        <mxCell id="2ASU68TMHlR7fyz_YcoL-211" value="False" style="edgeLabel;html=1;align=center;verticalAlign=middle;resizable=0;points=[];" vertex="1" connectable="0" parent="2ASU68TMHlR7fyz_YcoL-197">
          <mxGeometry x="-0.6266" relative="1" as="geometry">
            <mxPoint as="offset" />
          </mxGeometry>
        </mxCell>
        <mxCell id="2ASU68TMHlR7fyz_YcoL-189" value="&lt;span style=&quot;font-size: 11px;&quot;&gt;i&lt;br&gt;&amp;lt;&lt;br&gt;Jumlah Barang&lt;/span&gt;" style="rhombus;whiteSpace=wrap;html=1;" vertex="1" parent="1">
          <mxGeometry x="-1310.0099999999998" y="1925" width="140" height="120" as="geometry" />
        </mxCell>
        <mxCell id="2ASU68TMHlR7fyz_YcoL-194" style="edgeStyle=orthogonalEdgeStyle;rounded=0;orthogonalLoop=1;jettySize=auto;html=1;entryX=0.5;entryY=0;entryDx=0;entryDy=0;" edge="1" parent="1" source="2ASU68TMHlR7fyz_YcoL-191" target="2ASU68TMHlR7fyz_YcoL-193">
          <mxGeometry relative="1" as="geometry" />
        </mxCell>
        <mxCell id="2ASU68TMHlR7fyz_YcoL-191" value="&lt;b style=&quot;color: rgb(139, 82, 255);&quot;&gt;Proses&lt;br&gt;&lt;/b&gt;Mengeluarkan&lt;br&gt;Data 1 Per 1" style="rounded=0;whiteSpace=wrap;html=1;" vertex="1" parent="1">
          <mxGeometry x="-1335.01" y="2120" width="190" height="80" as="geometry" />
        </mxCell>
        <mxCell id="2ASU68TMHlR7fyz_YcoL-196" style="edgeStyle=orthogonalEdgeStyle;rounded=0;orthogonalLoop=1;jettySize=auto;html=1;entryX=1;entryY=0.5;entryDx=0;entryDy=0;" edge="1" parent="1" source="2ASU68TMHlR7fyz_YcoL-193" target="2ASU68TMHlR7fyz_YcoL-189">
          <mxGeometry relative="1" as="geometry">
            <Array as="points">
              <mxPoint x="-1080" y="2310" />
              <mxPoint x="-1080" y="1985" />
            </Array>
          </mxGeometry>
        </mxCell>
        <mxCell id="2ASU68TMHlR7fyz_YcoL-193" value="Menampikan&lt;br&gt;Hasil Dari Proses&lt;br&gt;Dalam Bentuk Table" style="shape=parallelogram;perimeter=parallelogramPerimeter;whiteSpace=wrap;html=1;fixedSize=1;" vertex="1" parent="1">
          <mxGeometry x="-1340.01" y="2270" width="200" height="80" as="geometry" />
        </mxCell>
      </root>
    </mxGraphModel>
  </diagram>
</mxfile>
